<?xml version="1.0" encoding="iso-8859-1"?>
<!-- Generator: Adobe Illustrator 16.0.0, SVG Export Plug-In . SVG Version: 6.00 Build 0)  -->
<!DOCTYPE svg PUBLIC "-//W3C//DTD SVG 1.1//EN" "http://www.w3.org/Graphics/SVG/1.1/DTD/svg11.dtd">
<svg version="1.1" id="Capa_1" xmlns="http://www.w3.org/2000/svg" xmlns:xlink="http://www.w3.org/1999/xlink" x="0px" y="0px"
	 width="190.646px" height="190.646px" viewBox="0 0 190.646 190.646" style="enable-background:new 0 0 190.646 190.646;"
	 xml:space="preserve">
<g>
	<path d="M70.23,110.997c-6.14-7.339-14.192-10.264-22.948-11.485c-11.617-10.275-33.944,13.473-38.509,22.734
		c-10.568,21.442,5.331,41.358,25.906,46.582c21.126,5.363,39.053-8.786,41.816-29.882C77.729,129.535,76.575,118.58,70.23,110.997z
		 M66.937,136.176c-0.879,16.676-13.866,26.056-29.656,23.219c-16.469-2.96-26.561-18.578-18.737-34.235
		c3.057-6.118,8.621-11.153,14.249-14.823c1.276-0.832,2.565-1.399,3.868-1.802c0.257,0.063,0.511,0.129,0.791,0.157
		c8.344,0.849,16.765,1.165,23.448,6.887C66.603,120.46,67.299,129.31,66.937,136.176z"/>
	<path d="M190.582,79.256c-0.065-1.27-0.774-2.536-2.308-3.133c-8.344-3.252-17.836-2.834-26.636-3.574
		c-2.64-0.222-8.032,0.111-8.626-2.267c-1.111-4.445-1.229-9.052-1.675-13.606c10.757-0.873,17.769-21.545,4.777-24.019
		c-8.146-1.551-16.054,6.799-19.744,12.949c-4.312,7.188-5.296,17.516-3.005,25.984c-13.752-2.192-27.657-2.279-41.555-2.639
		c-2.664-15.515-2.916-37.759-13.051-49.777c-3.786-4.49-12.215-2.163-16.985-1.872c-14.445,0.881-28.921-1.653-43.462-0.722
		c-1.6,0.103-3.025,1.283-2.991,2.991c0.401,20.004-3.982,39.844-2.017,59.81c0.014,0.138,0.062,0.245,0.1,0.361
		c-0.034,0.03-0.07,0.059-0.104,0.089c-6.087,1.908-14.014,8.232-13.25,14.701c0.088,0.742,0.618,1.284,1.226,1.449
		c0.227,0.426,0.613,0.746,1.106,0.938c10.446,4.07,21.69-4.476,31.567-7.157c22.333-6.062,40.893,9.368,45.678,30.194
		c1.334,5.805,0.974,15.741,8.32,17.763c11.945,3.285,27.624,3.394,40.025,2.932c-1.999,5.012-2.722,10.656-1.891,15.847
		c2.53,15.806,17.764,22.067,31.533,14.716c10.266-5.479,13.306-18.752,10.655-29.261c-0.775-3.075-2.454-6.094-4.685-8.71
		c5.354-5.879,8.441-17.467,11.722-24.029c4.734-9.471,10.209-18.567,15.001-27.952C190.653,80.59,190.713,79.895,190.582,79.256z
		 M21.185,22.704c16.739,0.846,33.575,1.717,50.29,0.861c7.569-0.388,12.061,32.6,14.068,45.184
		c-3.406-0.124-6.812-0.275-10.212-0.516c-19.858-1.408-38.086-1.453-57.522,2.085C19.328,54.483,20.764,38.593,21.185,22.704z
		 M156.16,158.92c-4.307,6.831-14.975,7.104-18.854,0.044c-2.161-3.932-1.351-9.1-0.396-13.209
		c0.601-2.583,2.699-7.711,5.609-10.092c6.49,1.308,11.327,0.014,14.975,6.828C160.229,147.6,159.111,154.239,156.16,158.92z
		 M169.439,105.784c-2.295,4.78-9.129,15.7-10.252,23.397c-5.312-3.814-12.021-5.331-17.979-1.908
		c-0.683,0.392-1.167,0.969-1.53,1.608c-3.36,0.826-6.531,3.081-8.477,5.774c-0.171,0.236-0.312,0.497-0.475,0.739
		c-0.48-0.454-1.113-0.788-1.966-0.827c-8.368-0.39-16.587-1.506-24.881-2.605c-9.026-1.195-14.562,1.13-16.238-9.383
		c-1.911-11.984-6.009-21.884-14.818-30.361c-7.034-6.769-16.977-9.085-26.321-10.04c-6.189-0.632-12.645,0.644-18.492,2.497
		c-3.287,1.042-19.629,10.611-23.607,8.331c1.245-1.709,2.631-3.166,4.574-4.445c2.714-1.786,6.017-2.965,8.403-5.18
		c0.228-0.212,0.347-0.513,0.466-0.806c5.657-1.809,11.051-4.488,16.743-6.258c8.705-2.708,16.74-1.687,25.45-2.222
		c0.899,0.072,1.752,0.136,2.531,0.183c23.951,1.448,48.271,1.195,72.059,4.42c3.553,0.482,5.461-3.842,3.448-5.77
		c1.559-12.695-0.748-25.449,12.521-33.284c4.831-2.853,7.487-0.135,6.104,4.742c-1.295,4.567-5.668,5.538-8.903,8.178
		c-1.111,0.906-0.906,2.117-0.185,2.992c-1.364,6.433-4.286,19.646,3.019,22.028c9.801,3.196,20.599,2.449,30.84,4.057
		C176.093,88.405,172.443,99.528,169.439,105.784z"/>
</g>
<g>
</g>
<g>
</g>
<g>
</g>
<g>
</g>
<g>
</g>
<g>
</g>
<g>
</g>
<g>
</g>
<g>
</g>
<g>
</g>
<g>
</g>
<g>
</g>
<g>
</g>
<g>
</g>
<g>
</g>
</svg>
